<svg xmlns="http://www.w3.org/2000/svg" width="37.636" height="37.67" viewBox="0 0 37.636 37.67">
  <g id="Logo" transform="translate(-47.993 -35.26)">
    <path id="Path_23" data-name="Path 23" d="M2.847-3.926q.065.182.455.344a2.669,2.669,0,0,0,1.014.162,2.511,2.511,0,0,0,1.046-.214,2.209,2.209,0,0,0,.819-.643,3.081,3.081,0,0,0,.533-1.059A5.12,5.12,0,0,0,6.9-6.8a3.233,3.233,0,0,0-.182-1.112,2.544,2.544,0,0,0-.5-.852,2.265,2.265,0,0,0-.747-.546A2.2,2.2,0,0,0,4.55-9.5a2.073,2.073,0,0,0-.539.072,3.112,3.112,0,0,0-.481.169,1.631,1.631,0,0,0-.351.208.452.452,0,0,0-.163.2,2.1,2.1,0,0,0-.045.39q-.02.312-.039.761t-.039.988q-.02.54-.026,1.059t-.013.982Q2.847-4.212,2.847-3.926ZM1.3-3.9q0-1.586-.026-2.587T1.2-8.054a3.457,3.457,0,0,0-.13-.774Q.988-9.035.871-9.035q-.039,0-.156.006t-.253.007q-.136,0-.241-.007t-.1-.033v-.149q0-.11.052-.136A1.9,1.9,0,0,1,.455-9.36q.221,0,.514.013t.6.02q.312.006.572.006h.423q.163,0,.149-.026a.983.983,0,0,0,.253-.084q.2-.085.507-.189a6.211,6.211,0,0,1,.7-.188,3.951,3.951,0,0,1,.826-.085,4.207,4.207,0,0,1,2.548.682,2.208,2.208,0,0,1,.923,1.879,3.973,3.973,0,0,1-.4,1.814A4.386,4.386,0,0,1,7.014-4.154a4.707,4.707,0,0,1-1.482.865,4.873,4.873,0,0,1-1.671.3q-.26,0-.565-.026a1.453,1.453,0,0,1-.449-.091v.845q0,.52.013,1.04t.052.942a1.87,1.87,0,0,0,.1.553.194.194,0,0,0,.163.111A1.423,1.423,0,0,0,3.458.4Q3.614.39,3.776.37a2.4,2.4,0,0,1,.28-.019A.08.08,0,0,1,4.108.41a.379.379,0,0,1,.013.1.379.379,0,0,1-.013.1.053.053,0,0,1-.052.045A3.171,3.171,0,0,0,3.49.722Q3.172.78,2.815.878T2.1,1.105q-.358.13-.683.273a6.4,6.4,0,0,0-.78.41L-.3,2.346q-.468.28-.858.487a1.456,1.456,0,0,1-.546.208.3.3,0,0,1-.15-.052A.646.646,0,0,1-2,2.873a.14.14,0,0,1-.046-.123q.013-.059.143-.085a2.961,2.961,0,0,0,.767-.26q.442-.208.858-.455t.735-.475a3.948,3.948,0,0,0,.41-.318A1.6,1.6,0,0,0,1.008.579q.072-.514.137-1.248t.11-1.6Q1.3-3.133,1.3-3.9Z" transform="translate(58.88 70.886) rotate(-90)" fill="#fff"/>
    <path id="Line_10" data-name="Line 10" d="M18,1.25H0A1.25,1.25,0,0,1-1.25,0,1.25,1.25,0,0,1,0-1.25H18A1.25,1.25,0,0,1,19.25,0,1.25,1.25,0,0,1,18,1.25Z" transform="translate(64.38 69)" fill="#fff"/>
    <path id="Path_13" data-name="Path 13" d="M0,11.508a1.246,1.246,0,0,1-.894-.376A1.25,1.25,0,0,1-.874,9.364L9.626-.894a1.25,1.25,0,0,1,1.768.021A1.25,1.25,0,0,1,11.374.894L.874,11.152A1.246,1.246,0,0,1,0,11.508Z" transform="translate(50.38 36.742)" fill="#fff"/>
    <path id="Line_14" data-name="Line 14" d="M0,21.25A1.25,1.25,0,0,1-1.25,20V0A1.25,1.25,0,0,1,0-1.25,1.25,1.25,0,0,1,1.25,0V20A1.25,1.25,0,0,1,0,21.25Z" transform="translate(82.38 49)" fill="#fff"/>
    <path id="Ellipse_11" data-name="Ellipse 11" d="M1.415,0C2.2,0,2.83,1.1,2.83,2.455S2.2,4.909,1.415,4.909,0,3.81,0,2.455.634,0,1.415,0Z" transform="matrix(0.755, 0.656, -0.656, 0.755, 82.668, 45.356)"/>
    <path id="Path_22" data-name="Path 22" d="M9.464-10.66a.277.277,0,0,1,.241.085.476.476,0,0,1,.058.266A3.878,3.878,0,0,0,8.8-8.664a8.132,8.132,0,0,0-.312,2.281q0,.039-.065.078a.541.541,0,0,1-.137.059.375.375,0,0,1-.136.013.064.064,0,0,1-.065-.072q0-.052.007-.13T8.1-6.6a1.6,1.6,0,0,0-.208-.715,3.211,3.211,0,0,0-.572-.773,3.349,3.349,0,0,0-.852-.624A2.235,2.235,0,0,0,5.421-8.97a2.649,2.649,0,0,0-1.359.345,3.136,3.136,0,0,0-.994.916,4.336,4.336,0,0,0-.618,1.332,5.839,5.839,0,0,0-.214,1.593,5.97,5.97,0,0,0,.253,1.761A4.771,4.771,0,0,0,3.2-1.579,3.488,3.488,0,0,0,4.3-.6a2.816,2.816,0,0,0,1.411.364A2.387,2.387,0,0,0,6.643-.41a2.025,2.025,0,0,0,.7-.481,2.144,2.144,0,0,0,.442-.722,2.534,2.534,0,0,0,.156-.9A2.768,2.768,0,0,0,7.826-3.3,2.692,2.692,0,0,0,7.5-4.01a1.987,1.987,0,0,0-.481-.52.985.985,0,0,0-.6-.2,1.711,1.711,0,0,0-.39.045,1.15,1.15,0,0,0-.351.143.772.772,0,0,0-.247.24.641.641,0,0,0-.091.351.815.815,0,0,0,.052.292.864.864,0,0,0,.13.234.882.882,0,0,0,.156.156.164.164,0,0,0,.13.046.083.083,0,0,1,.1.059q.033.071.007.1a1.141,1.141,0,0,1-.442.189,3.212,3.212,0,0,1-.9.11.933.933,0,0,1-.735-.3,1,1,0,0,1-.266-.689.733.733,0,0,1,.247-.5A2.3,2.3,0,0,1,4.5-4.713a4.927,4.927,0,0,1,1-.332,5.5,5.5,0,0,1,1.222-.13,4.55,4.55,0,0,1,1.248.156,2.936,2.936,0,0,1,.923.429,1.89,1.89,0,0,1,.572.637,1.6,1.6,0,0,1,.195.767A2.424,2.424,0,0,1,9.3-1.943a4.13,4.13,0,0,1-.962,1.1,5.142,5.142,0,0,1-1.371.793A4.3,4.3,0,0,1,5.369.26a6.6,6.6,0,0,1-2.2-.338,4.366,4.366,0,0,1-1.592-.949A3.983,3.983,0,0,1,.611-2.47,5,5,0,0,1,.286-4.3,4.745,4.745,0,0,1,.728-6.331,5.332,5.332,0,0,1,1.937-7.995,5.66,5.66,0,0,1,3.744-9.12a6.084,6.084,0,0,1,2.249-.409,5.522,5.522,0,0,1,1.547.182q.611.182.988.3l.149-.371q.1-.24.221-.488a4.288,4.288,0,0,1,.267-.462A.825.825,0,0,1,9.464-10.66Z" transform="matrix(0.996, 0.087, -0.087, 0.996, 72.711, 45.912)" fill="#fff"/>
    <path id="Line_15" data-name="Line 15" d="M0,14.25A1.25,1.25,0,0,1-1.25,13V0A1.25,1.25,0,0,1,0-1.25,1.25,1.25,0,0,1,1.25,0V13A1.25,1.25,0,0,1,0,14.25Z" transform="translate(50.38 47)" fill="#fff"/>
    <path id="Ellipse_10" data-name="Ellipse 10" d="M1,0c.552,0,1,.9,1,2S1.552,4,1,4,0,3.1,0,2,.448,0,1,0Z" transform="translate(51.421 59.241) rotate(59)"/>
    <path id="Line_68" data-name="Line 68" d="M12,1.25H0A1.25,1.25,0,0,1-1.25,0,1.25,1.25,0,0,1,0-1.25H12A1.25,1.25,0,0,1,13.25,0,1.25,1.25,0,0,1,12,1.25Z" transform="translate(60.88 36.742)" fill="#fff"/>
    <path id="Ellipse_9" data-name="Ellipse 9" d="M1,0c.552,0,1,1.119,1,2.5S1.552,5,1,5,0,3.881,0,2.5.448,0,1,0Z" transform="matrix(0.809, 0.588, -0.588, 0.809, 73.311, 35.26)"/>
    <path id="Path_19" data-name="Path 19" d="M272.362,72.744a5.3,5.3,0,0,0-.827-1.667l-.005-.009c-.2-.357-.393-.68-.583-.993-.7-1.154-1.253-2.065-.9-3.214a.2.2,0,1,1,.383.117c-.3.978.188,1.78.861,2.89.191.315.388.64.589,1a4.963,4.963,0,0,1,.884,1.851l-.4.017Z" transform="translate(-207.516)" fill="#fff"/>
    <path id="Path_20" data-name="Path 20" d="M272.4,70.948c0-.012-.07-.292-.819-1.105l-.008-.009c-.2-.245-.4-.467-.589-.681-.7-.786-1.31-1.465-.927-2.314a.2.2,0,0,1,.268-.1.2.2,0,0,1,.1.264c-.265.588.113,1.051.861,1.888.194.217.394.441.6.691.83.9.912,1.245.917,1.328l-.4.025A.061.061,0,0,0,272.4,70.948Z" transform="translate(195.911 305.398) rotate(-128)" fill="#fff"/>
    <path id="Path_21" data-name="Path 21" d="M1,0A.9.9,0,0,1,2,.757a.9.9,0,0,1-1,.757A.9.9,0,0,1,0,.757.9.9,0,0,1,1,0Z" transform="translate(62.98 67.75)" fill="#fff"/>
    <path id="Ellipse_12_-_Outline" data-name="Ellipse 12 - Outline" d="M1,0A.9.9,0,0,1,2,.757a.9.9,0,0,1-1,.757A.9.9,0,0,1,0,.757.9.9,0,0,1,1,0Z" transform="translate(62.98 67.75)" fill="#fff"/>
    <path id="Ellipse_11-2" data-name="Ellipse 11" d="M1.667,0c.921,0,1.667,1.228,1.667,2.744S2.588,5.487,1.667,5.487,0,4.259,0,2.744.746,0,1.667,0Z" transform="translate(81.641 46.3) rotate(41)"/>
    <path id="Ellipse_11-3" data-name="Ellipse 11" d="M.19,0C.3,0,.38.313.38.7S.3,1.4.19,1.4,0,1.087,0,.7.085,0,.19,0Z" transform="translate(84.009 46.352) rotate(24)" fill="#fff"/>
  </g>
</svg>
