<?xml version="1.0" standalone="no"?>
<!DOCTYPE svg PUBLIC "-//W3C//DTD SVG 20010904//EN"
 "http://www.w3.org/TR/2001/REC-SVG-20010904/DTD/svg10.dtd">
<svg version="1.0" xmlns="http://www.w3.org/2000/svg"
 width="638.000000pt" height="606.000000pt" viewBox="0 0 638.000000 606.000000"
 preserveAspectRatio="xMidYMid meet">

<g transform="translate(0.000000,606.000000) scale(0.100000,-0.100000)"
fill="#000000" stroke="none">
<path d="M0 3030 l0 -3030 3190 0 3190 0 0 3030 0 3030 -3190 0 -3190 0 0
-3030z m4164 2309 l30 -17 -51 -25 c-61 -31 -149 -119 -205 -204 l-40 -63
-642 0 -641 0 -622 -608 -622 -607 -1 -790 0 -790 -68 0 c-67 -1 -129 -22
-204 -71 -15 -10 -31 -15 -35 -10 -13 13 -15 1756 -3 1787 12 28 85 101 735
734 226 220 471 459 545 531 74 72 149 136 165 142 20 7 296 10 830 9 719 -2
803 -4 829 -18z m1264 -92 c2 -10 -16 -39 -43 -69 -25 -28 -61 -84 -81 -123
-34 -73 -73 -221 -74 -282 0 -22 -6 -36 -21 -43 -28 -15 -34 -7 -34 48 -1 104
-96 237 -210 293 -100 49 -222 42 -319 -18 -60 -38 -118 -102 -155 -172 -56
-106 -72 -172 -78 -316 -5 -113 -3 -141 16 -208 31 -112 75 -193 141 -257 79
-78 134 -102 242 -108 80 -4 93 -2 142 22 68 33 108 78 135 151 38 101 22 229
-39 313 -41 57 -80 75 -147 70 -72 -6 -103 -35 -103 -96 0 -36 5 -49 31 -73
18 -16 29 -32 26 -35 -10 -11 -82 -24 -130 -24 -92 0 -146 40 -154 115 -5 42
-3 48 31 79 74 71 258 110 407 87 152 -23 247 -74 297 -159 93 -159 -53 -384
-313 -480 -200 -75 -500 -19 -662 123 -69 60 -128 152 -155 239 -29 93 -31
261 -4 351 32 109 84 194 171 281 89 90 173 142 293 182 70 24 92 26 232 26
162 -1 188 -5 322 -57 l67 -26 31 58 c45 84 88 133 114 129 11 -2 22 -11 24
-21z m92 -1362 c9 -11 10 -22 1 -42 -6 -16 -18 -57 -28 -93 -16 -60 -18 -175
-23 -1405 l-5 -1340 -23 -33 c-13 -18 -41 -41 -63 -52 -38 -20 -58 -20 -1233
-18 -657 2 -1193 1 -1191 -2 1 -3 22 -36 45 -75 54 -88 110 -204 110 -227 0
-13 -8 -18 -25 -18 -14 0 -25 5 -25 11 0 18 -73 157 -153 290 -151 253 -176
332 -141 452 6 20 40 23 47 5 2 -7 0 -31 -5 -52 -8 -36 -6 -69 9 -119 5 -18 6
-17 20 2 37 53 -17 51 1193 51 l1120 0 0 1114 0 1113 42 7 c53 9 147 58 186
99 27 28 35 50 57 157 38 177 54 212 85 175z m-3972 -2013 c233 -89 389 -350
366 -614 l-7 -78 39 1 c167 2 375 18 389 29 11 9 15 31 15 76 0 51 3 64 15 64
18 0 19 -2 34 -98 18 -116 75 -253 181 -437 54 -93 101 -181 105 -195 7 -29
-18 -71 -33 -55 -5 6 -15 28 -22 50 -26 84 -132 267 -178 308 -26 24 -191 43
-480 58 -280 14 -736 0 -796 -25 -35 -14 -36 -17 -36 -65 0 -52 -7 -65 -29
-51 -11 6 -12 36 -7 153 l8 145 -38 114 c-32 98 -37 125 -37 208 0 52 5 121
11 152 22 114 97 224 179 263 76 36 220 35 321 -3z"/>
<path d="M1303 1686 c-174 -55 -260 -230 -194 -399 13 -32 33 -64 45 -73 35
-22 633 -38 658 -17 26 23 48 100 48 167 -1 173 -99 284 -288 325 -70 15 -216
13 -269 -3z"/>
</g>
</svg>
